<?xml version="1.0" encoding="UTF-8"?>
<svg id="Capa_1" data-name="Capa 1" xmlns="http://www.w3.org/2000/svg" viewBox="0 0 1080 1080">
  <defs>
    <style>
      .cls-1 {
        fill: #fff;
      }
    </style>
  </defs>
  <g>
    <path class="cls-1" d="M239.38,574.25c.8,9.67-.36,18.94-3.48,27.81-3.13,8.87-7.96,16.82-14.5,23.87-6.55,7.06-14.66,12.95-24.33,17.68-9.67,4.73-20.75,7.8-33.24,9.21-12.5,1.41-26.19.91-41.1-1.51-14.91-2.42-30.93-7.25-48.05-14.5-3.02-1.21-5.29-1.36-6.8-.45-1.51.91-2.57,2.17-3.17,3.77-.6,1.62-.91,3.43-.91,5.44v4.23h-2.72v-40.19h2.72c.8,2.22,2.87,5.55,6.2,9.98,3.32,4.43,8.26,8.91,14.81,13.44,6.54,4.54,15.06,8.62,25.54,12.24,10.47,3.63,23.46,5.54,38.98,5.75,13.7,0,25.94-1.97,36.72-5.89,10.78-3.93,19.89-9.02,27.35-15.26,7.45-6.24,13.15-13.35,17.07-21.31,3.93-7.95,5.99-15.96,6.2-24.02-1.01-9.87-4.64-18.08-10.88-24.63-6.25-6.54-14.01-12.09-23.27-16.62-9.27-4.53-19.55-8.36-30.83-11.48-11.28-3.12-22.67-6.2-34.15-9.22-18.13-4.83-32.49-9.82-43.07-14.96-10.57-5.14-18.49-10.62-23.72-16.47-5.24-5.84-8.36-12.13-9.37-18.89-1.01-6.75-1.01-14.25,0-22.51,1.41-9.27,4.88-17.12,10.43-23.58,5.54-6.44,12.34-11.53,20.4-15.26,8.06-3.72,17.08-6.14,27.05-7.25,9.98-1.1,20.15-1.01,30.52.31,10.38,1.31,20.55,3.73,30.52,7.25,9.98,3.52,19.09,8.11,27.35,13.75,4.02,2.82,7.45,3.93,10.28,3.32,2.82-.61,4.23-3.63,4.23-9.06h2.72v40.19h-2.72v-2.42c0-1.41-.35-3.52-1.06-6.35-.71-2.82-2.02-5.99-3.93-9.52-1.92-3.52-4.74-7.1-8.47-10.72-3.73-3.63-8.72-7.15-14.96-10.58-7.86-3.83-16.37-6.95-25.54-9.37-9.17-2.42-18.33-3.93-27.5-4.54-9.17-.6-18.09-.19-26.75,1.21-8.66,1.41-16.52,3.93-23.57,7.56-7.06,3.63-12.95,8.42-17.68,14.36-4.73,5.95-7.7,13.25-8.91,21.91-1.01,9.27.65,17.07,4.99,23.42,4.33,6.34,10.43,11.74,18.28,16.16,7.86,4.44,16.92,8.21,27.2,11.34,10.28,3.13,20.95,6.15,32.03,9.06,11.08,2.92,22.01,6,32.79,9.22,10.78,3.22,20.5,7.2,29.16,11.94,8.66,4.73,15.81,10.47,21.46,17.22,5.64,6.76,8.87,15.07,9.67,24.93"/>
    <path class="cls-1" d="M364.79,428.59c0-6.45-.86-11.08-2.57-13.9-1.71-2.82-4.28-4.33-7.7-4.54h-71.93v43.82c5.84,1.81,11.28,4.38,16.32,7.7,5.03,3.33,9.82,6.8,14.35,10.43,4.54,3.63,8.81,7.21,12.84,10.73,4.03,3.53,7.91,6.45,11.64,8.76,3.72,2.31,6.65,3.68,8.76,4.08,2.11.41,3.47.61,4.08.61,2.82,0,5.54-.91,8.16-2.72l1.51,2.42c-2.22,1.2-4.08,1.92-5.59,2.11-1.51.2-2.47.41-2.87.61h-2.42c-4.03,0-8.72-1.46-14.05-4.38-5.34-2.92-11.03-6.69-17.08-11.33-6.05-4.63-12.09-9.32-18.14-14.06-6.04-4.73-11.89-8.41-17.53-11.03v188.58h70.72c3.42-.2,6.04-1.71,7.86-4.53s2.72-7.45,2.72-13.9h2.42v21.15h-110.3v-2.72h2.12c5.64-.4,8.96-1.91,9.97-4.53,1-2.62,1.51-5.54,1.51-8.76v-178.91c-1.41-.2-2.72-.3-3.93-.3s-2.57.15-4.08.45c-1.51.3-3.28.76-5.29,1.36l-.91-2.72c1.81-.4,3.67-.76,5.59-1.06,1.91-.3,3.78-.45,5.59-.45h3.02v-28.1c0-1.82-.1-3.52-.3-5.14-.21-1.61-.71-3.02-1.51-4.23-.81-1.21-2.17-2.17-4.08-2.87-1.92-.71-4.49-1.06-7.71-1.06v-2.72h111.52v21.16h-2.72Z"/>
    <path class="cls-1" d="M395.32,646.78c6.24,0,10.02-1.26,11.33-3.77,1.31-2.52,1.96-5.79,1.96-9.83v-209.43c0-1.81-.05-3.52-.15-5.14-.1-1.61-.61-3.02-1.51-4.23-.91-1.21-2.27-2.21-4.08-3.02-1.81-.8-4.43-1.21-7.86-1.21v-2.72h28.71l106.98,211.85v-195.83c0-4.03-.66-7.25-1.97-9.67-1.31-2.42-5.09-3.63-11.33-3.63v-2.72h29.62v2.72c-3.43,0-6.04.41-7.86,1.21-1.81.81-3.17,1.81-4.08,3.02-.91,1.21-1.41,2.62-1.51,4.23-.1,1.62-.15,3.23-.15,4.84v225.75h-2.72l-119.37-236.33v220.31c0,1.82.05,3.53.15,5.14.1,1.62.61,3.02,1.51,4.23.91,1.21,2.27,2.22,4.08,3.02,1.81.81,4.43,1.21,7.86,1.21v2.42h-29.62v-2.42Z"/>
    <path class="cls-1" d="M791.52,575.16c-5.44,13.1-12.74,24.63-21.91,34.6-9.17,9.98-19.34,18.09-30.52,24.33-11.18,6.25-21.96,10.38-32.33,12.39-10.38,2.02-19.6,3.02-27.65,3.02-4.84,0-11.63-.5-20.4-1.51-8.76-1.01-19.24-4.33-31.43-9.98-12.19-5.64-23.42-13.6-33.7-23.88-11.48-11.68-20.3-24.88-26.44-39.58-6.15-14.71-9.22-30.22-9.22-46.54,0-14.3,2.26-27.81,6.8-40.49,4.54-12.69,10.83-24.08,18.89-34.15,8.06-10.07,17.43-18.74,28.1-26,10.68-7.25,21.86-12.54,33.55-15.87,11.68-3.32,23.37-4.98,35.06-4.98,1.61,0,6.2.15,13.75.45,7.56.3,17.98,3.17,31.28,8.62,15.11,6.04,28.36,14.76,39.74,26.14,11.38,11.39,20.2,24.53,26.44,39.43h-13.9c-7.45-12.09-16.62-23.06-27.5-32.94-10.88-9.87-22.72-17.83-35.51-23.88-12.8-6.05-23.42-9.52-31.88-10.43-8.47-.91-14.21-1.36-17.23-1.36-10.68,0-21.15,1.91-31.42,5.74-14.5,6.05-27.35,14.66-38.53,25.84-11.18,11.18-19.8,24.02-25.84,38.53-3.83,10.28-5.74,20.75-5.74,31.43,0,3.63.55,9.97,1.66,19.04,1.1,9.06,4.98,20.15,11.63,33.24,6.65,13.1,15.31,25.14,25.99,36.11,10.68,10.99,22.47,19.95,35.35,26.9,12.89,6.95,24.08,11.14,33.55,12.54,9.47,1.41,16.42,2.12,20.85,2.12,9.87,0,19.54-1.61,29.01-4.83,15.51-5.84,28.96-14.4,40.34-25.69,11.38-11.28,20.2-24.07,26.44-38.38h2.72Z"/>
    <path class="cls-1" d="M847.12,649.2h-40.19v-2.72c3.42,0,6.04-.35,7.86-1.06,1.81-.7,3.17-1.66,4.08-2.87.91-1.21,1.41-2.62,1.51-4.23.1-1.61.15-3.32.15-5.14v-209.73c0-1.82-.05-3.53-.15-5.14-.1-1.61-.61-3.02-1.51-4.23-.9-1.21-2.27-2.22-4.08-3.02-1.82-.8-4.44-1.21-7.86-1.21v-2.42h40.19v2.42c-5.24,0-8.81.91-10.73,2.72-1.92,1.81-2.87,4.33-2.87,7.55v216.38c0,3.23.95,5.7,2.87,7.4,1.91,1.72,5.49,2.57,10.73,2.57v2.72Z"/>
    <path class="cls-1" d="M1005.48,639.22c.8,2.62,2.11,4.53,3.93,5.74,1.81,1.2,5.14,1.81,9.97,1.81v2.72h-37.47v-2.72c4.03,0,6.8-.35,8.31-1.05,1.51-.71,2.27-2.07,2.27-4.08,0-.61-.05-1.25-.15-1.96-.1-.7-.4-1.96-.91-3.78-.5-1.81-1.21-4.42-2.11-7.86-.91-3.42-2.22-8.16-3.93-14.2-1.71-6.04-3.88-13.7-6.5-22.97-2.62-9.27-5.74-20.65-9.37-34.15-5.24,2.22-9.88,6.91-13.9,14.06-4.03,7.15-8.57,17.07-13.6,29.77-3.43,8.46-6.65,15.87-9.67,22.21-3.02,6.35-6.05,11.63-9.07,15.87-3.02,4.23-6.29,7.36-9.82,9.37-3.53,2.01-7.5,3.02-11.94,3.02-4.83,0-9.12-.86-12.84-2.57-3.73-1.71-6.75-3.93-9.06-6.65-2.32-2.72-3.99-5.69-4.99-8.92-1.01-3.22-1.51-6.35-1.51-9.37v-1.81c0-1.2.15-2.67.45-4.38.3-1.71,1.05-4.94,2.27-9.67,1.2-4.73,2.97-11.38,5.28-19.95,2.31-8.56,5.59-20.35,9.82-35.36,4.23-15.01,9.52-33.65,15.87-55.91,6.35-22.26,14.06-49.41,23.12-81.44-.81-1.41-2.17-2.62-4.08-3.63-1.92-1.01-4.98-1.51-9.21-1.51v-2.72h37.77v2.72c-4.03,0-6.75.61-8.16,1.81-1.41,1.21-2.12,2.92-2.12,5.14,0,.61.05,1.21.15,1.81.1.61.65,2.73,1.66,6.35,1.01,3.62,2.67,9.67,4.99,18.13,2.31,8.46,5.74,20.8,10.28,37.02,4.53,16.22,10.37,37.22,17.53,63.01,7.15,25.79,16.07,57.83,26.75,96.1M939.29,599.33c4.63-11.49,9.17-21.25,13.6-29.32,4.43-8.06,9.67-13.4,15.71-16.02l-37.17-134.18c-1.41,4.83-3.43,11.89-6.04,21.15-2.62,9.27-5.59,19.79-8.91,31.58-3.33,11.79-6.8,24.18-10.43,37.17-3.63,12.99-7.15,25.54-10.57,37.62-3.43,12.09-6.55,23.17-9.37,33.24-2.83,10.08-5.04,18.03-6.65,23.88-.81,3.22-1.21,6.45-1.21,9.67,0,1.21.1,3.13.31,5.74.2,2.62,1.31,5.59,3.32,8.91,2.01,3.33,4.94,6.05,8.76,8.16,3.83,2.11,8.47,3.17,13.9,3.17,1.61,0,3.63-.25,6.05-.75,2.42-.5,5.08-2.01,8.01-4.54,2.92-2.52,6.09-6.54,9.52-12.09,3.42-5.54,7.15-13.35,11.18-23.42"/>
  </g>
  <path class="cls-1" d="M702.23,728c3.33-.06,7.74-1.07,9.05-4.7.83-2.32-.24-4.76-2.8-6.25-3.57-1.96-9.41-2.38-14.11-4.05-3.33-1.19-6.73-3.04-6.73-7.44,0-4.05,4.28-6.79,7.62-7.86,2.14-.65,4.46-.95,6.85-.95,4.28,0,8.57.95,11.85,2.68l-1.91,5.01c-1.31-2.38-4.11-6.07-9.23-6.55-2.32-.24-5.65.06-7.74,1.37-3.21,1.9-4.76,5.83-.3,8.1,5.3,2.68,13.69,2.14,17.86,6.37,2.74,2.8,2.86,8.04.47,11.13-2.38,3.15-7.02,4.23-11.07,4.23-5.48,0-10.48-1.6-14.4-4.94v-8.09h.53c1.67,6.49,7.5,12.02,14.05,11.96"/>
  <path class="cls-1" d="M757.58,691.57h.54v5.18h7.44v1.07h-7.44v23.93c0,5.95,3.63,5.89,7.02,1.9l.42.36c-1.79,2.5-3.93,5.06-7.21,5.06-4.17,0-5.59-3.75-5.59-7.32v-23.93h-3.81v-1.07c3.04,0,7.02-2.09,8.63-5.18"/>
  <path class="cls-1" d="M798.3,701.22v-.54c3.52,0,7.56-1.61,9.17-3.93v24.23c0,3.57,1.79,5.06,4.17,5.12,3.51,0,7.44-3.04,10.12-5.36v-11.61c0-6.31-1.25-8.04-3.81-7.92v-.54c3.45,0,7.5-1.61,9.11-3.93l.06,24.59c.06,5.77,1.31,7.32,3.81,7.2v.54h-5.77c-2.68,0-3.39-1.67-3.39-4.04v-2.8c-3.75,3.51-9.35,6.85-13.75,6.85s-5.9-2.98-5.9-6.9v-13.04c0-6.31-1.25-8.04-3.81-7.92"/>
  <path class="cls-1" d="M895.5,728.54v.54h-13.33c-11.13,0-17.44-7.98-17.44-18.69,0-6.61,3.63-13.63,11.07-13.63,4.71,0,8.27,3.16,10.54,6.97v-6.97c0-6.31-1.25-7.98-3.81-7.86v-.54c3.51,0,7.56-1.6,9.17-3.93v36.25c0,6.31,1.25,7.98,3.81,7.86M886.34,706.09c-3.99-8.45-10.95-8.27-14.34-3.22-3.39,5.12-1.79,13.76,1.07,18.75,2.15,3.69,5.78,6.37,8.75,6.37s4.53-2.08,4.53-7.32v-14.58Z"/>
  <path class="cls-1" d="M942.23,728.54v.54h-12.98v-.54c2.56.12,3.81-1.55,3.81-7.86v-11.55c0-6.31-1.25-8.04-3.81-7.92v-.54c3.51,0,7.56-1.61,9.17-3.93v23.93c0,6.31,1.25,7.98,3.81,7.86M939.67,692.23c0,2.2-1.79,3.93-3.93,3.93s-3.93-1.73-3.93-3.93,1.79-3.87,3.93-3.87,3.93,1.72,3.93,3.87"/>
  <path class="cls-1" d="M992.95,696.75c8.93,0,16.19,7.26,16.19,16.19s-7.26,16.13-16.19,16.13-16.13-7.2-16.13-16.13,7.21-16.19,16.13-16.19M987.95,698.72c-5.66,1.96-7.98,9.94-5.18,17.8,2.8,7.86,9.59,12.62,15.24,10.65,5.6-2.03,7.92-10,5.18-17.86-2.8-7.86-9.59-12.62-15.24-10.59"/>
</svg>