<svg xmlns="http://www.w3.org/2000/svg" viewBox="0 0 330.36 462.69"><defs><style>.cls-1{fill:#fff;}</style></defs><g id="Capa_2" data-name="Capa 2"><g id="Capa_1-2" data-name="Capa 1"><path class="cls-1" d="M329.9,316.24a122.19,122.19,0,0,1-6.41,51.32,125.57,125.57,0,0,1-26.77,44.05q-18.14,19.54-44.9,32.64t-61.35,17q-34.59,3.9-75.86-2.78T25.94,431.7c-5.59-2.23-9.76-2.52-12.56-.84a13.46,13.46,0,0,0-5.85,7,28.48,28.48,0,0,0-1.67,10.05v7.81h-5V381.5h5q2.22,6.15,11.43,18.41t27.33,24.81q18.12,12.55,47.13,22.59t71.94,10.6q37.92,0,67.77-10.87t50.48-28.17q20.63-17.28,31.51-39.32t11.43-44.34q-2.79-27.33-20.08-45.46t-42.94-30.67A329.91,329.91,0,0,0,205,237.88q-31.25-8.62-63-17-50.19-13.38-79.48-27.61T18.68,162.87Q4.18,146.69,1.4,128t0-41.55Q5.29,60.81,20.64,43A109.63,109.63,0,0,1,58.28,14.79Q80.59,4.47,108.2,1.4A237.86,237.86,0,0,1,164.53,2a269.85,269.85,0,0,1,56.33,13.38,217.85,217.85,0,0,1,50.48,25.37q11.15,7.81,19,6.14t7.8-16.73h5V104.3h-5V99.84a53.58,53.58,0,0,0-1.95-11.71,77.35,77.35,0,0,0-7.25-17.57,84.75,84.75,0,0,0-15.62-19.8q-10.34-10-27.61-19.52A256.79,256.79,0,0,0,198.55,14,268.2,268.2,0,0,0,147.8,5.58,218.34,218.34,0,0,0,98.44,7.81a145.58,145.58,0,0,0-43.5,14A98.84,98.84,0,0,0,22.31,48.25Q9.2,64.72,5.86,88.69q-2.8,25.66,9.2,43.23T48.8,161.74Q70.55,174,99,182.67t59.12,16.73q30.67,8.08,60.51,17a278.16,278.16,0,0,1,53.82,22q24,13.11,39.6,31.79t17.85,46"/></g></g></svg>