<?xml version="1.0" encoding="UTF-8"?>
<svg id="Capa_1" data-name="Capa 1" xmlns="http://www.w3.org/2000/svg" viewBox="0 0 1080 1080">
  <defs>
    <style>
      .cls-1 {
        fill: #c4a18f;
      }

      .cls-2 {
        fill: #fff;
      }
    </style>
  </defs>
  <path class="cls-2" d="M540,163.11c-208.15,0-376.89,168.73-376.89,376.89,0,67,17.5,129.91,48.16,184.42l-42.68,169.33c-2.18,8.68,5.49,16.65,14.25,14.79l176.74-37.58c53.58,29.27,115.05,45.92,180.42,45.92,208.15,0,376.89-168.75,376.89-376.89s-168.73-376.89-376.89-376.89"/>
  <path class="cls-1" d="M217.32,540c0,179.51,145.52,325.03,325.02,325.03s325.02-145.52,325.02-325.03-145.52-325.02-325.02-325.02-325.02,145.52-325.02,325.02"/>
  <path class="cls-2" d="M500.97,667.61c-55.98-47.06-143.98-142.61-146.38-218.98-1.51-47.73,26.86-91.5,75.81-99.52,17.2-2.81,31.23-3.96,41.3,12.27,8.23,13.27,25.4,71.38,27.74,87.72,3.57,24.95-38.34,28.58-41.02,40.59-2.29,10.31,14.76,37.91,20.87,47.2,23.23,35.29,63.67,72.98,102.25,90.77,25.09,11.57,24.51-9.75,35.78-25,3.87-5.24,9.91-12.2,16.97-12.38,5.32-.14,20.49,4.54,26.41,6.23,15.29,4.37,65.65,20.01,74.91,30.26,11.74,13.01,1.37,46.51-6.21,60.47-20.99,38.67-57.07,51.23-99.71,47.12-43.6-4.22-95.69-38.99-128.71-66.74"/>
</svg>