<svg xmlns="http://www.w3.org/2000/svg" xmlns:xlink="http://www.w3.org/1999/xlink" width="150" zoomAndPan="magnify" viewBox="0 0 112.5 112.499997" height="150" preserveAspectRatio="xMidYMid meet" version="1.2"><defs><clipPath id="bcf833b593"><path d="M 0 17.082031 L 112 17.082031 L 112 94.734375 L 0 94.734375 Z M 0 17.082031 "/></clipPath></defs><g id="09c3e2da11"><g clip-rule="nonzero" clip-path="url(#bcf833b593)"><path style=" stroke:none;fill-rule:nonzero;fill:#bfa187;fill-opacity:1;" d="M 12.1875 17.082031 C 5.511719 17.082031 0.0507812 22.539062 0.0507812 29.214844 L 0.0507812 82.601562 C 0.0507812 89.273438 5.511719 94.734375 12.1875 94.734375 L 99.546875 94.734375 C 106.222656 94.734375 111.679688 89.273438 111.679688 82.601562 L 111.679688 29.214844 C 111.679688 22.539062 106.222656 17.082031 99.546875 17.082031 Z M 12.1875 21.933594 L 99.546875 21.933594 C 103.59375 21.933594 106.828125 25.167969 106.828125 29.214844 L 106.828125 34.066406 L 4.90625 34.066406 L 4.90625 29.214844 C 4.90625 25.167969 8.136719 21.933594 12.1875 21.933594 Z M 4.90625 46.199219 L 106.828125 46.199219 L 106.828125 82.601562 C 106.828125 86.648438 103.59375 89.882812 99.546875 89.882812 L 12.1875 89.882812 C 8.136719 89.882812 4.90625 86.648438 4.90625 82.601562 Z M 17.039062 53.480469 L 17.039062 58.335938 L 55.867188 58.335938 L 55.867188 53.480469 Z M 17.039062 53.480469 "/><path style=" stroke:none;fill-rule:nonzero;fill:#bfa187;fill-opacity:1;" d="M 12.1875 17.082031 C 5.511719 17.082031 0.0507812 22.539062 0.0507812 29.214844 L 0.0507812 82.601562 C 0.0507812 89.273438 5.511719 94.734375 12.1875 94.734375 L 99.546875 94.734375 C 106.222656 94.734375 111.679688 89.273438 111.679688 82.601562 L 111.679688 29.214844 C 111.679688 22.539062 106.222656 17.082031 99.546875 17.082031 Z M 12.1875 21.933594 L 99.546875 21.933594 C 103.59375 21.933594 106.828125 25.167969 106.828125 29.214844 L 106.828125 34.066406 L 4.90625 34.066406 L 4.90625 29.214844 C 4.90625 25.167969 8.136719 21.933594 12.1875 21.933594 Z M 4.90625 46.199219 L 106.828125 46.199219 L 106.828125 82.601562 C 106.828125 86.648438 103.59375 89.882812 99.546875 89.882812 L 12.1875 89.882812 C 8.136719 89.882812 4.90625 86.648438 4.90625 82.601562 Z M 17.039062 53.480469 L 17.039062 58.335938 L 55.867188 58.335938 L 55.867188 53.480469 Z M 17.039062 53.480469 "/></g></g></svg>