<svg xmlns="http://www.w3.org/2000/svg" xmlns:xlink="http://www.w3.org/1999/xlink" width="150" zoomAndPan="magnify" viewBox="0 0 112.5 112.499997" height="150" preserveAspectRatio="xMidYMid meet" version="1.2"><defs><clipPath id="ab7da4c500"><path d="M 4 1.613281 L 106.214844 1.613281 L 106.214844 112 L 4 112 Z M 4 1.613281 "/></clipPath><clipPath id="0f8b973d6e"><path d="M 4 1.613281 L 106.214844 1.613281 L 106.214844 112 L 4 112 Z M 4 1.613281 "/></clipPath></defs><g id="e9c0ee144d"><g clip-rule="nonzero" clip-path="url(#ab7da4c500)"><path style=" stroke:none;fill-rule:nonzero;fill:#bfa187;fill-opacity:1;" d="M 106.101562 38.527344 C 106.101562 38.460938 106.09375 38.394531 106.082031 38.324219 C 106.078125 38.308594 106.074219 38.292969 106.070312 38.277344 C 106.058594 38.222656 106.042969 38.171875 106.023438 38.121094 C 106.015625 38.105469 106.011719 38.089844 106.003906 38.074219 C 105.980469 38.019531 105.953125 37.96875 105.921875 37.917969 L 90.738281 14.058594 C 90.527344 13.722656 90.15625 13.519531 89.757812 13.519531 L 76.578125 13.519531 L 76.578125 2.773438 C 76.578125 2.128906 76.058594 1.609375 75.414062 1.609375 L 34.699219 1.609375 C 34.054688 1.609375 33.535156 2.128906 33.535156 2.773438 L 33.535156 13.519531 L 20.355469 13.519531 C 19.957031 13.519531 19.585938 13.726562 19.371094 14.058594 L 4.191406 37.917969 C 4.160156 37.96875 4.132812 38.019531 4.109375 38.074219 C 4.101562 38.089844 4.097656 38.105469 4.089844 38.121094 C 4.070312 38.171875 4.054688 38.222656 4.042969 38.277344 C 4.039062 38.292969 4.035156 38.308594 4.03125 38.324219 C 4.019531 38.394531 4.011719 38.460938 4.011719 38.527344 C 4.011719 38.535156 4.007812 38.539062 4.007812 38.542969 L 4.007812 48.933594 C 4.007812 53.015625 7.328125 56.335938 11.410156 56.335938 C 12.042969 56.335938 12.660156 56.253906 13.246094 56.101562 L 13.246094 105.125 L 8.753906 105.125 C 8.109375 105.125 7.589844 105.644531 7.589844 106.289062 L 7.589844 110.445312 C 7.589844 111.089844 8.109375 111.609375 8.753906 111.609375 L 104.363281 111.609375 C 105.003906 111.609375 105.527344 111.089844 105.527344 110.445312 L 105.527344 106.289062 C 105.527344 105.644531 105.003906 105.125 104.363281 105.125 L 98.714844 105.125 L 98.714844 56.335938 C 102.789062 56.328125 106.101562 53.011719 106.101562 48.933594 L 106.101562 38.542969 C 106.101562 38.539062 106.101562 38.53125 106.101562 38.527344 Z M 35.863281 3.9375 L 74.25 3.9375 L 74.25 13.519531 L 35.863281 13.519531 Z M 20.992188 15.851562 L 34.695312 15.851562 C 34.695312 15.851562 34.699219 15.851562 34.699219 15.851562 L 75.414062 15.851562 C 75.414062 15.851562 75.414062 15.851562 75.417969 15.851562 L 89.117188 15.851562 L 102.820312 37.378906 L 7.292969 37.378906 Z M 48.832031 100.390625 L 48.832031 70.378906 C 48.832031 69.734375 48.308594 69.214844 47.664062 69.214844 L 22.722656 69.214844 C 22.082031 69.214844 21.558594 69.734375 21.558594 70.378906 L 21.558594 105.125 L 15.574219 105.125 L 15.574219 55.046875 C 16.398438 54.480469 17.105469 53.753906 17.644531 52.910156 C 18.960938 54.96875 21.261719 56.335938 23.878906 56.335938 C 26.496094 56.335938 28.796875 54.96875 30.113281 52.910156 C 31.429688 54.96875 33.734375 56.335938 36.351562 56.335938 C 38.96875 56.335938 41.269531 54.96875 42.585938 52.910156 C 43.902344 54.96875 46.203125 56.335938 48.820312 56.335938 C 51.4375 56.335938 53.742188 54.96875 55.054688 52.910156 C 56.371094 54.96875 58.675781 56.335938 61.292969 56.335938 C 63.910156 56.335938 66.210938 54.96875 67.527344 52.910156 C 68.84375 54.96875 71.144531 56.335938 73.761719 56.335938 C 76.378906 56.335938 78.679688 54.96875 79.996094 52.910156 C 81.3125 54.96875 83.617188 56.335938 86.234375 56.335938 C 88.847656 56.335938 91.148438 54.96875 92.464844 52.914062 C 93.367188 54.328125 94.738281 55.421875 96.382812 55.960938 L 96.382812 100.390625 Z M 96.382812 102.71875 L 96.382812 105.125 L 48.832031 105.125 L 48.832031 102.71875 Z M 46.5 71.542969 L 46.5 105.125 L 23.886719 105.125 L 23.886719 71.542969 Z M 18.808594 48.933594 L 18.808594 39.707031 L 28.949219 39.707031 L 28.949219 48.933594 C 28.949219 51.730469 26.675781 54.007812 23.878906 54.007812 C 21.082031 54.007812 18.808594 51.730469 18.808594 48.933594 Z M 31.277344 48.933594 L 31.277344 39.707031 L 41.421875 39.707031 L 41.421875 48.933594 C 41.421875 51.730469 39.144531 54.007812 36.351562 54.007812 C 33.554688 54.007812 31.277344 51.730469 31.277344 48.933594 Z M 43.75 48.929688 L 43.75 39.707031 L 53.890625 39.707031 L 53.890625 48.933594 C 53.890625 51.730469 51.617188 54.007812 48.820312 54.007812 C 46.023438 54.007812 43.75 51.730469 43.75 48.933594 C 43.75 48.933594 43.75 48.933594 43.75 48.929688 Z M 56.21875 48.933594 L 56.21875 39.707031 L 66.363281 39.707031 L 66.363281 48.933594 C 66.363281 51.730469 64.085938 54.007812 61.292969 54.007812 C 58.496094 54.007812 56.222656 51.730469 56.222656 48.933594 C 56.21875 48.933594 56.21875 48.933594 56.21875 48.933594 Z M 68.691406 48.933594 L 68.691406 39.707031 L 78.832031 39.707031 L 78.832031 48.933594 C 78.832031 51.730469 76.558594 54.007812 73.761719 54.007812 C 70.964844 54.007812 68.691406 51.730469 68.691406 48.933594 Z M 81.160156 48.933594 L 81.160156 39.707031 L 91.304688 39.707031 L 91.304688 48.933594 C 91.304688 51.730469 89.027344 54.007812 86.234375 54.007812 C 83.4375 54.007812 81.164062 51.730469 81.164062 48.933594 C 81.160156 48.933594 81.160156 48.933594 81.160156 48.933594 Z M 11.410156 54.007812 C 8.613281 54.007812 6.335938 51.730469 6.335938 48.933594 L 6.335938 39.707031 L 16.480469 39.707031 L 16.480469 48.933594 C 16.480469 51.730469 14.203125 54.007812 11.410156 54.007812 Z M 103.195312 107.453125 L 103.195312 109.28125 L 9.917969 109.28125 L 9.917969 107.453125 Z M 103.773438 48.933594 C 103.773438 51.730469 101.5 54.007812 98.703125 54.007812 C 98.386719 54.007812 98.070312 53.976562 97.761719 53.917969 C 95.371094 53.46875 93.632812 51.375 93.632812 48.933594 L 93.632812 39.707031 L 103.773438 39.707031 Z M 103.773438 48.933594 "/></g><path style=" stroke:none;fill-rule:nonzero;fill:#bfa187;fill-opacity:1;" d="M 89.234375 58.820312 L 55.980469 58.820312 C 55.335938 58.820312 54.816406 59.34375 54.816406 59.984375 L 54.816406 95.320312 C 54.816406 95.960938 55.335938 96.484375 55.980469 96.484375 L 89.234375 96.484375 C 89.878906 96.484375 90.398438 95.960938 90.398438 95.320312 L 90.398438 59.984375 C 90.398438 59.34375 89.878906 58.820312 89.234375 58.820312 Z M 88.070312 94.15625 L 57.144531 94.15625 L 57.144531 61.148438 L 88.070312 61.148438 Z M 88.070312 94.15625 "/><g clip-rule="nonzero" clip-path="url(#0f8b973d6e)"><path style=" stroke:none;fill-rule:nonzero;fill:#bfa187;fill-opacity:1;" d="M 106.101562 38.527344 C 106.101562 38.460938 106.09375 38.394531 106.082031 38.324219 C 106.078125 38.308594 106.074219 38.292969 106.070312 38.277344 C 106.058594 38.222656 106.042969 38.171875 106.023438 38.121094 C 106.015625 38.105469 106.011719 38.089844 106.003906 38.074219 C 105.980469 38.019531 105.953125 37.96875 105.921875 37.917969 L 90.738281 14.058594 C 90.527344 13.722656 90.15625 13.519531 89.757812 13.519531 L 76.578125 13.519531 L 76.578125 2.773438 C 76.578125 2.128906 76.058594 1.609375 75.414062 1.609375 L 34.699219 1.609375 C 34.054688 1.609375 33.535156 2.128906 33.535156 2.773438 L 33.535156 13.519531 L 20.355469 13.519531 C 19.957031 13.519531 19.585938 13.726562 19.371094 14.058594 L 4.191406 37.917969 C 4.160156 37.96875 4.132812 38.019531 4.109375 38.074219 C 4.101562 38.089844 4.097656 38.105469 4.089844 38.121094 C 4.070312 38.171875 4.054688 38.222656 4.042969 38.277344 C 4.039062 38.292969 4.035156 38.308594 4.03125 38.324219 C 4.019531 38.394531 4.011719 38.460938 4.011719 38.527344 C 4.011719 38.535156 4.007812 38.539062 4.007812 38.542969 L 4.007812 48.933594 C 4.007812 53.015625 7.328125 56.335938 11.410156 56.335938 C 12.042969 56.335938 12.660156 56.253906 13.246094 56.101562 L 13.246094 105.125 L 8.753906 105.125 C 8.109375 105.125 7.589844 105.644531 7.589844 106.289062 L 7.589844 110.445312 C 7.589844 111.089844 8.109375 111.609375 8.753906 111.609375 L 104.363281 111.609375 C 105.003906 111.609375 105.527344 111.089844 105.527344 110.445312 L 105.527344 106.289062 C 105.527344 105.644531 105.003906 105.125 104.363281 105.125 L 98.714844 105.125 L 98.714844 56.335938 C 102.789062 56.328125 106.101562 53.011719 106.101562 48.933594 L 106.101562 38.542969 C 106.101562 38.539062 106.101562 38.53125 106.101562 38.527344 Z M 35.863281 3.9375 L 74.25 3.9375 L 74.25 13.519531 L 35.863281 13.519531 Z M 20.992188 15.851562 L 34.695312 15.851562 C 34.695312 15.851562 34.699219 15.851562 34.699219 15.851562 L 75.414062 15.851562 C 75.414062 15.851562 75.414062 15.851562 75.417969 15.851562 L 89.117188 15.851562 L 102.820312 37.378906 L 7.292969 37.378906 Z M 48.832031 100.390625 L 48.832031 70.378906 C 48.832031 69.734375 48.308594 69.214844 47.664062 69.214844 L 22.722656 69.214844 C 22.082031 69.214844 21.558594 69.734375 21.558594 70.378906 L 21.558594 105.125 L 15.574219 105.125 L 15.574219 55.046875 C 16.398438 54.480469 17.105469 53.753906 17.644531 52.910156 C 18.960938 54.96875 21.261719 56.335938 23.878906 56.335938 C 26.496094 56.335938 28.796875 54.96875 30.113281 52.910156 C 31.429688 54.96875 33.734375 56.335938 36.351562 56.335938 C 38.96875 56.335938 41.269531 54.96875 42.585938 52.910156 C 43.902344 54.96875 46.203125 56.335938 48.820312 56.335938 C 51.4375 56.335938 53.742188 54.96875 55.054688 52.910156 C 56.371094 54.96875 58.675781 56.335938 61.292969 56.335938 C 63.910156 56.335938 66.210938 54.96875 67.527344 52.910156 C 68.84375 54.96875 71.144531 56.335938 73.761719 56.335938 C 76.378906 56.335938 78.679688 54.96875 79.996094 52.910156 C 81.3125 54.96875 83.617188 56.335938 86.234375 56.335938 C 88.847656 56.335938 91.148438 54.96875 92.464844 52.914062 C 93.367188 54.328125 94.738281 55.421875 96.382812 55.960938 L 96.382812 100.390625 Z M 96.382812 102.71875 L 96.382812 105.125 L 48.832031 105.125 L 48.832031 102.71875 Z M 46.5 71.542969 L 46.5 105.125 L 23.886719 105.125 L 23.886719 71.542969 Z M 18.808594 48.933594 L 18.808594 39.707031 L 28.949219 39.707031 L 28.949219 48.933594 C 28.949219 51.730469 26.675781 54.007812 23.878906 54.007812 C 21.082031 54.007812 18.808594 51.730469 18.808594 48.933594 Z M 31.277344 48.933594 L 31.277344 39.707031 L 41.421875 39.707031 L 41.421875 48.933594 C 41.421875 51.730469 39.144531 54.007812 36.351562 54.007812 C 33.554688 54.007812 31.277344 51.730469 31.277344 48.933594 Z M 43.75 48.929688 L 43.75 39.707031 L 53.890625 39.707031 L 53.890625 48.933594 C 53.890625 51.730469 51.617188 54.007812 48.820312 54.007812 C 46.023438 54.007812 43.75 51.730469 43.75 48.933594 C 43.75 48.933594 43.75 48.933594 43.75 48.929688 Z M 56.21875 48.933594 L 56.21875 39.707031 L 66.363281 39.707031 L 66.363281 48.933594 C 66.363281 51.730469 64.085938 54.007812 61.292969 54.007812 C 58.496094 54.007812 56.222656 51.730469 56.222656 48.933594 C 56.21875 48.933594 56.21875 48.933594 56.21875 48.933594 Z M 68.691406 48.933594 L 68.691406 39.707031 L 78.832031 39.707031 L 78.832031 48.933594 C 78.832031 51.730469 76.558594 54.007812 73.761719 54.007812 C 70.964844 54.007812 68.691406 51.730469 68.691406 48.933594 Z M 81.160156 48.933594 L 81.160156 39.707031 L 91.304688 39.707031 L 91.304688 48.933594 C 91.304688 51.730469 89.027344 54.007812 86.234375 54.007812 C 83.4375 54.007812 81.164062 51.730469 81.164062 48.933594 C 81.160156 48.933594 81.160156 48.933594 81.160156 48.933594 Z M 11.410156 54.007812 C 8.613281 54.007812 6.335938 51.730469 6.335938 48.933594 L 6.335938 39.707031 L 16.480469 39.707031 L 16.480469 48.933594 C 16.480469 51.730469 14.203125 54.007812 11.410156 54.007812 Z M 103.195312 107.453125 L 103.195312 109.28125 L 9.917969 109.28125 L 9.917969 107.453125 Z M 103.773438 48.933594 C 103.773438 51.730469 101.5 54.007812 98.703125 54.007812 C 98.386719 54.007812 98.070312 53.976562 97.761719 53.917969 C 95.371094 53.46875 93.632812 51.375 93.632812 48.933594 L 93.632812 39.707031 L 103.773438 39.707031 Z M 103.773438 48.933594 "/></g><path style=" stroke:none;fill-rule:nonzero;fill:#bfa187;fill-opacity:1;" d="M 89.234375 58.820312 L 55.980469 58.820312 C 55.335938 58.820312 54.816406 59.34375 54.816406 59.984375 L 54.816406 95.320312 C 54.816406 95.960938 55.335938 96.484375 55.980469 96.484375 L 89.234375 96.484375 C 89.878906 96.484375 90.398438 95.960938 90.398438 95.320312 L 90.398438 59.984375 C 90.398438 59.34375 89.878906 58.820312 89.234375 58.820312 Z M 88.070312 94.15625 L 57.144531 94.15625 L 57.144531 61.148438 L 88.070312 61.148438 Z M 88.070312 94.15625 "/></g></svg>