<svg xmlns="http://www.w3.org/2000/svg" viewBox="0 0 75.23 77.17"><defs><style>.cls-1{fill:#b68972;}.cls-2{fill:#fff;}</style></defs><g id="Capa_2" data-name="Capa 2"><g id="Capa_1-2" data-name="Capa 1"><polygon class="cls-1" points="37.62 0 45.25 5.15 54.36 3.82 59 11.77 67.78 14.53 68.52 23.7 75.23 30 71.91 38.58 75.23 47.17 68.52 53.47 67.78 62.64 59 65.4 54.36 73.35 45.25 72.02 37.62 77.17 29.98 72.02 20.88 73.35 16.23 65.4 7.45 62.64 6.72 53.47 0 47.17 3.32 38.58 0 30 6.72 23.7 7.45 14.53 16.23 11.77 20.88 3.82 29.98 5.15 37.62 0"/><path class="cls-2" d="M41.85,19.79v9l-2.6,18.77H34.63L32,28.8v-9ZM32,56.7a4.91,4.91,0,1,1,4.91,4.91A4.73,4.73,0,0,1,32,56.7Z"/></g></g></svg>